HIERARCHY
ROOT hip
{
	OFFSET 0.000000 0.000000 0.000000 
	CHANNELS 6 Xposition Yposition Zposition Xrotation Zrotation Yrotation
	JOINT abdomen
	{
		OFFSET 0.000000 3.402643 0.000000 
		CHANNELS 3 Xrotation Zrotation Yrotation
		JOINT chest
		{
			OFFSET 0.000000 8.438565 -0.680529 
			CHANNELS 3 Xrotation Zrotation Yrotation
			JOINT neck
			{
				OFFSET 0.000000 10.207942 -0.272212 
				CHANNELS 3 Xrotation Zrotation Yrotation
				JOINT head
				{
					OFFSET 0.000000 3.130431 0.000000 
					CHANNELS 3 Xrotation Zrotation Yrotation
					End Site
					{
						OFFSET 0.000000 3.130435 0.000000 
					}
				}
			}
			JOINT lCollar
			{
				OFFSET 3.470700 6.669187 -0.816635 
				CHANNELS 3 Yrotation Zrotation Xrotation
				JOINT lShldr
				{
					OFFSET 3.198488 0.000000 0.000000 
					CHANNELS 3 Zrotation Yrotation Xrotation
					JOINT lForeArm
					{
						OFFSET 10.139888 0.000000 0.000000 
						CHANNELS 3 Yrotation Zrotation Xrotation
						JOINT lHand
						{
							OFFSET 8.370511 0.000000 0.000000 
							CHANNELS 3 Zrotation Yrotation Xrotation
							End Site
							{
								OFFSET 4.083176 0.000000 0.000000 
							}
						}
					}
				}
			}
			JOINT rCollar
			{
				OFFSET -3.470700 6.669187 -0.816635 
				CHANNELS 3 Yrotation Zrotation Xrotation
				JOINT rShldr
				{
					OFFSET -3.198488 0.000000 0.000000 
					CHANNELS 3 Zrotation Yrotation Xrotation
					JOINT rForeArm
					{
						OFFSET -10.139888 0.000000 0.000000 
						CHANNELS 3 Yrotation Zrotation Xrotation
						JOINT rHand
						{
							OFFSET -8.370511 0.000000 0.000000 
							CHANNELS 3 Zrotation Yrotation Xrotation
							End Site
							{
								OFFSET -4.083176 0.000000 0.000000 
							}
						}
					}
				}
			}
		}
	}
	JOINT lThigh
	{
		OFFSET 5.308129 -1.633274 1.361059 
		CHANNELS 3 Xrotation Zrotation Yrotation
		JOINT lShin
		{
			OFFSET -2.041588 -20.007561 0.000000 
			CHANNELS 3 Xrotation Zrotation Yrotation
			JOINT lFoot
			{
				OFFSET 0.000000 -19.190928 -1.224953 
				CHANNELS 3 Xrotation Yrotation Zrotation
				End Site
				{
					OFFSET 0.000000 -2.449906 4.627600 
				}
			}
		}
	}
	JOINT rThigh
	{
		OFFSET -5.308129 -1.633274 1.361059 
		CHANNELS 3 Xrotation Zrotation Yrotation
		JOINT rShin
		{
			OFFSET 2.041588 -20.007561 0.000000 
			CHANNELS 3 Xrotation Zrotation Yrotation
			JOINT rFoot
			{
				OFFSET 0.000000 -19.190928 -1.224953 
				CHANNELS 3 Xrotation Yrotation Zrotation
				End Site
				{
					OFFSET 0.000000 -2.449906 4.627600 
				}
			}
		}
	}
}
MOTION
Frames: 6
Frame Time: 0.011111
22.748329 48.193707 -136.675140 6.189347 -2.244455 -2.944700 17.713848 3.816241 9.000822 -23.542007 -0.263468 2.120004 -8.486465 0.377605 -1.330065 16.355757 -2.223522 -2.593468 -7.198545 -2.255300 -0.324897 -71.938164 -16.678579 22.672731 -43.146553 5.808641 5.513602 8.524705 12.647240 -36.682995 5.113256 1.510366 0.237230 73.019554 27.047899 7.278526 51.199245 -7.974706 8.648826 -8.533279 -12.636986 45.511864 -30.622860 12.147412 7.896961 60.317211 -2.708826 -8.162809 -15.891747 1.750776 -2.459798 -9.272771 1.658748 -1.328018 33.123821 5.169525 5.215952 -21.988932 18.719904 10.914343 
22.787935 48.236286 -135.929169 6.266298 -2.407022 -3.309886 17.582138 3.993160 9.225961 -23.151760 -0.451760 2.173456 -8.445296 0.484912 -1.277882 15.936156 -2.260021 -2.473031 -7.198545 -2.255300 -0.324897 -72.144737 -15.868262 21.295391 -42.391594 5.566036 5.242521 8.524705 12.647240 -38.030651 5.113256 1.510366 0.237230 72.539810 28.345486 9.426205 52.501118 -8.243310 9.182433 -8.533279 -12.636986 47.220848 -31.468847 12.516482 8.033104 57.891487 -2.991849 -7.956768 -17.055468 1.380412 -2.481416 -7.955792 1.649433 -2.259095 32.359520 5.193223 5.135252 -21.536263 19.729530 11.289334 
22.832825 48.259388 -135.187851 6.362975 -2.538266 -3.584714 17.518143 4.057421 9.561670 -23.181576 -0.964920 2.271167 -8.367077 0.788539 -1.304704 15.768835 -2.073616 -2.440420 -7.198545 -2.255300 -0.324897 -71.918449 -14.683864 20.803555 -42.045048 5.448297 5.114471 8.524705 12.647240 -38.841198 5.113256 1.510366 0.237230 72.016006 29.727320 11.532517 54.037548 -8.522527 9.827174 -8.533279 -12.636986 46.234528 -32.316208 12.798260 8.192389 55.394756 -3.264384 -7.728475 -18.272591 1.597259 -2.318138 -6.848034 1.657949 -2.741039 31.949121 5.227765 5.098307 -21.082691 20.251797 11.383204 
22.874744 48.181160 -134.469604 6.458756 -2.746979 -4.035936 17.565657 4.070616 10.120739 -23.201464 -1.339169 2.432283 -8.544421 1.286326 -1.385854 15.853118 -2.352868 -2.555023 -7.198545 -2.255300 -0.324897 -71.677299 -13.517434 21.068438 -42.146698 5.479579 5.146326 8.524705 12.647240 -39.016979 5.113256 1.510366 0.237230 70.989105 31.638313 14.811906 54.015850 -8.516416 9.817745 -8.533279 -12.636986 48.998196 -32.914177 13.180429 8.337895 52.817230 -3.527260 -7.468742 -19.559654 1.266393 -2.303588 -5.806678 1.824882 -2.992363 31.481483 5.251834 5.024100 -19.956184 21.011717 11.390777 
22.913361 48.102608 -133.753036 6.425670 -3.004771 -4.731057 17.855076 4.198901 10.647180 -23.162418 -1.443804 2.552466 -8.627381 1.773797 -1.547999 15.776548 -3.415480 -2.941292 -7.198545 -2.255300 -0.324897 -71.878906 -12.509455 20.796009 -42.075756 5.458908 5.121418 8.524705 12.647240 -39.153702 5.113256 1.510366 0.237230 69.966454 33.855591 17.103508 53.763348 -8.474291 9.709989 -8.533279 -12.636986 50.941551 -33.074711 13.670985 8.488738 50.088257 -3.792763 -7.206856 -20.186876 0.986209 -2.333974 -4.595009 1.961085 -3.373577 30.950336 5.300433 4.950790 -19.456539 22.045874 11.694442 
22.949671 48.100960 -133.025894 6.460860 -3.111657 -5.236934 17.957899 4.459814 10.724157 -23.123316 -1.397106 2.539942 -7.523237 2.205472 -1.518269 13.534976 -4.681686 -2.871665 -7.198545 -2.255300 -0.324897 -72.530571 -11.552494 18.808167 -41.353539 5.214330 4.868868 8.524705 12.647240 -40.364639 5.113256 1.510366 0.237230 69.526360 35.188377 18.083494 54.818314 -8.650380 10.152438 -8.533279 -12.636986 51.517727 -33.346733 13.943624 8.370677 47.158371 -4.065864 -6.910780 -20.846455 2.401757 -1.757220 -3.342583 1.900396 -3.834167 30.213888 5.325514 4.852112 -19.473541 22.825037 12.060535 
